<svg version="1.1" id="Layer_1" xmlns="http://www.w3.org/2000/svg" xmlns:xlink="http://www.w3.org/1999/xlink" x="0px" y="0px"
	 width="100%" viewBox="0 0 1024 1024" enable-background="new 0 0 1024 1024" xml:space="preserve">
<path fill="#000000" opacity="1.000000" stroke="none" 
	d="
M730.913696,478.962830 
	C723.649536,483.784668 715.563721,487.663818 718.146973,498.461456 
	C713.307190,529.414307 686.376160,552.390259 654.937622,552.253906 
	C651.131287,552.237366 647.198059,552.045532 643.558228,551.064636 
	C639.660095,550.014038 637.120178,551.057495 634.170227,553.573181 
	C598.389709,584.085815 544.818481,577.054993 517.835449,538.427429 
	C516.316284,536.252808 514.864258,534.031311 513.386169,531.839294 
	C510.744110,532.161438 510.348022,534.452698 509.329895,536.003235 
	C495.128571,557.630554 475.213226,569.440735 449.368805,571.435425 
	C427.056458,573.157410 407.671478,566.771973 391.498657,551.171631 
	C388.952454,548.715515 386.464478,548.088989 382.947052,549.134460 
	C351.648590,558.437988 314.694305,537.115601 307.932983,501.247681 
	C306.227692,492.201385 303.238190,486.285065 295.533600,480.648315 
	C270.628784,462.427612 261.673920,429.350616 274.297058,402.259277 
	C278.074951,394.151367 278.320312,388.365204 275.035919,380.064484 
	C264.181488,352.631622 273.959198,320.141083 297.339172,302.093384 
	C300.117737,299.948517 301.231110,297.732147 300.561493,294.473175 
	C294.770813,266.290466 314.964783,235.109634 342.644684,225.865295 
	C346.185577,224.682739 348.061157,223.025650 348.985596,219.240417 
	C355.479279,192.651138 382.743134,175.572433 406.160065,174.753387 
	C409.678284,174.630310 412.026489,173.231842 414.499969,171.112106 
	C438.094238,150.892166 471.772278,148.447311 495.448914,165.158951 
	C501.524261,169.447113 506.328094,174.921051 510.338959,181.146133 
	C511.214539,182.505112 511.583649,184.286362 513.261719,185.031281 
	C514.731567,184.967682 515.119812,183.740723 515.727417,182.804901 
	C532.247559,157.360458 560.708801,148.042679 588.935974,158.763077 
	C597.453552,161.997955 605.130127,166.546341 611.787598,172.755386 
	C613.844971,174.674194 616.027466,175.775986 618.927490,175.648651 
	C640.065613,174.720566 673.028564,195.190262 677.336670,220.559921 
	C677.842896,223.541092 679.896606,224.527252 682.343750,225.443161 
	C708.066528,235.070480 726.399658,260.984283 724.900757,288.148224 
	C724.423523,296.798492 727.140808,301.374756 733.056030,306.766754 
	C755.485596,327.212463 760.791138,360.154633 746.631653,386.708344 
	C745.305481,389.195374 745.171753,391.135712 746.721069,393.593384 
	C762.780090,419.067902 758.069519,451.592133 738.506165,471.941895 
	C736.203918,474.336761 733.633362,476.473785 730.913696,478.962830 
M634.397766,249.483719 
	C636.080200,254.831833 635.000793,260.323425 634.961914,266.210938 
	C642.485229,265.819153 648.399414,262.992310 652.846924,257.334717 
	C660.942505,247.036423 662.862061,235.164246 659.876770,222.828873 
	C655.293030,203.888870 631.168396,189.502472 612.165771,193.686050 
	C601.927673,195.940079 591.561035,203.282104 592.058899,217.353683 
	C592.115845,218.963425 591.701172,220.707352 591.062866,222.199936 
	C589.702576,225.380905 587.117798,227.335220 583.633972,227.084351 
	C580.238647,226.839859 577.699280,224.868378 576.758118,221.444214 
	C576.278198,219.698044 575.923706,217.822144 576.013672,216.030014 
	C576.607239,204.208054 580.469482,193.913101 590.181580,186.408798 
	C591.833252,185.132584 593.957886,184.176743 594.363342,181.797729 
	C593.610962,180.109512 592.270691,179.089767 590.875549,178.196472 
	C577.394226,169.564728 549.676758,168.961624 536.580017,185.916168 
	C527.273865,197.963531 524.059570,211.803207 523.355652,226.518753 
	C522.360291,247.326569 522.766235,268.165497 522.615173,288.979889 
	C522.142212,354.114838 521.982910,419.256927 523.104126,484.391846 
	C523.259216,493.398041 523.684509,502.365143 526.315186,511.049774 
	C532.868225,532.683289 546.475708,547.602173 568.941223,552.231628 
	C591.173950,556.813049 611.861328,553.920898 627.107117,534.474243 
	C630.097046,530.660461 633.880615,529.475525 638.614136,530.444397 
	C643.493530,531.443176 648.323975,532.606140 653.327881,533.125183 
	C676.700134,535.549072 696.498474,520.805847 700.812134,497.750183 
	C701.743347,492.773163 701.722046,488.488647 698.629333,484.039917 
	C694.818176,478.557495 697.441956,473.039276 703.985107,471.707458 
	C708.919983,470.702942 713.654053,469.291718 717.964294,466.582184 
	C731.234192,458.240479 737.943481,445.801331 739.491943,430.644714 
	C740.474365,421.028809 738.399963,411.906372 731.185425,404.288330 
	C724.559387,409.033875 717.791748,412.528687 710.335266,414.571045 
	C705.023865,416.025848 700.564819,413.941711 699.057922,409.286316 
	C697.650391,404.937714 699.657715,401.140259 704.988159,399.521729 
	C725.977234,393.148560 738.624084,373.167206 736.588562,350.284637 
	C735.350525,336.366486 729.907715,324.512268 717.616638,316.800995 
	C709.829590,311.915466 701.576843,311.177643 692.658936,314.846710 
	C693.267456,316.076996 693.666931,316.960388 694.129761,317.809235 
	C704.470154,336.773376 701.374573,361.627625 686.473694,377.146576 
	C679.752014,384.147064 671.632019,388.994537 661.871765,390.452881 
	C657.400818,391.120911 654.518677,388.794434 653.405701,384.489166 
	C652.329529,380.326263 654.027405,377.308075 657.806152,375.519470 
	C659.598999,374.670868 661.594971,374.263184 663.440125,373.511475 
	C677.455566,367.801910 683.923950,356.471527 684.338928,342.216187 
	C684.664917,331.015503 682.103638,321.783478 665.529358,314.579865 
	C664.918762,314.314453 664.288940,314.088104 663.695618,313.788849 
	C659.985657,311.917114 658.185303,308.946991 659.118469,304.818481 
	C660.041931,300.733002 663.923584,298.169647 668.268372,298.886719 
	C670.691040,299.286560 673.030273,300.319214 675.338684,301.238403 
	C676.786438,301.814850 678.088623,302.308075 679.597290,301.437317 
	C687.374573,296.948456 695.979126,296.166840 704.683533,296.094086 
	C706.943909,296.075165 707.447754,295.157104 707.716797,293.183502 
	C710.343994,273.915741 701.455200,255.634689 684.360901,245.345978 
	C678.369202,241.739716 677.947144,241.910324 676.205505,248.643021 
	C670.632080,270.189270 655.149048,282.695221 633.016846,283.284363 
	C629.980713,283.365173 628.079895,284.458466 626.441650,286.868042 
	C623.699646,290.901123 620.141235,294.195435 616.140686,296.960876 
	C611.567139,300.122437 607.584595,299.757050 604.609558,296.076935 
	C601.578247,292.327179 602.117493,287.800934 606.700012,284.389862 
	C614.772217,278.381195 618.697205,270.431793 619.370239,260.544403 
	C619.660950,256.273621 618.129944,252.351822 617.661804,248.240067 
	C617.104248,243.343979 619.101990,239.677002 623.039917,238.870026 
	C627.532532,237.949387 630.900452,239.680115 632.795593,243.892700 
	C633.471558,245.395340 633.807983,247.050690 634.397766,249.483719 
M460.511047,244.184265 
	C453.943390,239.709549 446.941925,236.471817 438.826782,236.015778 
	C421.736237,235.055389 405.619781,245.933014 401.709015,261.226410 
	C400.794281,264.803558 400.453003,267.761047 405.118958,269.591217 
	C423.458923,276.784851 434.979492,293.825897 432.894684,313.499878 
	C431.970886,322.217590 434.867676,326.122284 441.758026,329.098389 
	C442.212250,329.294556 442.624420,329.597260 443.038055,329.877106 
	C453.460815,336.928864 462.596649,345.110657 465.600861,358.003723 
	C467.092712,364.406189 467.041229,370.930786 464.083893,377.062439 
	C462.252045,380.860596 459.150177,382.408752 455.015686,381.323090 
	C451.253052,380.335052 449.681976,377.600800 449.683350,373.862793 
	C449.683838,372.534302 449.626099,371.149628 449.959412,369.886780 
	C451.757416,363.074188 449.302490,357.459503 445.140930,352.332489 
	C442.382965,348.934723 438.912811,346.336365 435.271118,343.955658 
	C429.727112,340.331360 424.459351,335.927734 418.279694,343.452606 
	C415.902008,346.347900 412.194855,345.792755 409.337677,343.134216 
	C406.345551,340.350220 405.971741,337.102448 408.182251,333.687897 
	C409.446777,331.734497 411.004791,329.973511 412.322998,328.052032 
	C418.813202,318.591644 419.760773,308.500214 414.752777,298.253723 
	C409.909790,288.344879 401.204620,284.078278 390.506500,283.246185 
	C381.900940,282.576874 374.079834,284.902405 366.541016,288.852875 
	C360.751434,291.886688 356.725769,291.025513 354.452209,286.718231 
	C352.184174,282.421387 353.852631,278.363556 359.031769,275.168518 
	C365.791351,270.998444 373.183746,268.479156 380.899902,266.989563 
	C384.145660,266.363007 385.377655,264.737000 385.677307,261.677277 
	C386.255096,255.777908 388.424042,250.366226 391.399384,245.307327 
	C400.427704,229.956757 414.280334,222.002838 431.593842,219.767456 
	C436.025116,219.195312 437.318542,217.360825 436.393463,213.179306 
	C434.316345,203.790009 429.049744,197.179489 419.776978,194.292328 
	C403.452667,189.209564 389.124725,193.200790 377.048004,204.896606 
	C368.962463,212.727158 363.961578,222.117752 365.584381,233.961395 
	C366.560425,241.084991 363.049286,244.515091 356.050110,242.872711 
	C351.567047,241.820755 347.464874,242.494812 343.395294,244.184433 
	C327.557434,250.760040 316.383240,268.409058 317.188934,285.507721 
	C317.584930,293.912689 319.156281,296.306213 327.075317,298.697357 
	C340.947083,302.885895 356.148529,316.718140 354.291748,335.994202 
	C353.888245,340.183258 355.882050,341.479065 359.731842,341.838348 
	C376.117004,343.367615 390.418457,349.372772 401.127533,362.328003 
	C408.323395,371.033173 412.939056,380.834167 412.265747,392.489838 
	C411.949890,397.957764 408.198120,402.066010 403.812256,401.959351 
	C399.185730,401.846832 396.676422,398.569122 396.698669,392.441711 
	C396.735199,382.386322 392.529785,374.174042 384.836761,368.185150 
	C371.733643,357.984589 356.905151,355.442841 340.989685,360.371887 
	C337.232544,361.535492 333.996155,361.586914 331.776093,357.995361 
	C329.485809,354.290131 330.772949,350.986511 333.561340,348.067047 
	C334.704498,346.870178 336.131226,345.831451 336.927551,344.434906 
	C341.097198,337.122162 338.579926,325.294952 331.725800,319.300507 
	C324.091736,312.623932 313.885071,311.583740 306.616364,317.311798 
	C286.008057,333.551880 281.400238,367.743164 301.573425,388.867401 
	C306.704895,394.240784 312.813263,398.347290 320.333649,399.644470 
	C328.230438,401.006531 335.470276,399.928192 341.597382,393.979645 
	C343.405029,392.224701 346.189240,391.114349 349.039337,392.106842 
	C351.872040,393.093231 353.791992,394.909546 354.661316,397.955017 
	C355.611572,401.283997 353.983307,403.444397 351.773743,405.344116 
	C346.864441,409.565125 341.404205,413.153625 337.915222,418.886414 
	C329.743500,432.313477 334.712372,447.729340 349.241302,453.550934 
	C351.557861,454.479156 354.000824,455.107269 356.276184,456.119537 
	C360.062531,457.804047 362.203857,460.793854 360.933380,464.917358 
	C359.687347,468.961395 356.713226,471.101685 352.140167,470.591766 
	C336.681427,468.867920 321.961060,455.382965 318.569641,440.335175 
	C316.772858,432.362793 318.459686,424.865662 320.783722,416.697998 
	C311.364105,415.123016 303.489563,410.927338 295.873657,406.149994 
	C293.611084,404.730743 292.552246,406.335510 291.605133,408.036255 
	C288.477875,413.651917 286.687225,419.657715 286.333527,426.085083 
	C285.442719,442.271790 297.070129,465.368591 317.109436,472.931183 
	C324.406403,475.684998 326.463470,478.941132 325.227051,485.806183 
	C323.101440,497.608246 327.020203,507.604584 334.268616,516.320679 
	C344.248749,528.321716 356.842743,534.706238 372.997192,532.094360 
	C377.737976,531.327820 379.406647,529.544861 378.070129,524.382751 
	C373.942017,508.438507 376.314423,493.352600 385.546631,479.553009 
	C388.828857,474.646942 393.461273,473.294281 397.440399,475.829071 
	C401.530914,478.434814 402.075531,482.897675 398.767426,488.003510 
	C396.490295,491.518158 394.193604,495.053619 393.432068,499.210999 
	C390.113800,517.327332 396.199127,532.088989 410.419556,543.272705 
	C422.959961,553.135132 437.632812,555.060486 453.046448,552.643921 
	C469.994965,549.986755 483.867035,542.541443 492.938080,527.321106 
	C500.037964,515.408203 503.444458,502.434479 503.581116,488.786713 
	C503.938141,453.128571 503.224792,417.450073 504.147339,381.811005 
	C504.659149,362.039734 502.229523,343.754272 492.319489,326.158081 
	C484.703949,312.636017 475.398865,302.021423 460.786346,296.440552 
	C458.929077,295.731232 457.042877,294.968292 455.382599,293.899902 
	C452.053833,291.757812 450.646332,288.552917 452.217194,284.848206 
	C453.785065,281.150574 456.870514,279.104279 461.041809,279.873840 
	C463.297791,280.290039 465.516876,281.190430 467.605682,282.181946 
	C480.528198,288.315826 490.919098,297.495453 499.464905,308.878143 
	C500.397156,310.119873 500.820343,312.035614 502.973694,312.024414 
	C504.360199,310.836060 503.817963,309.237244 503.817200,307.819702 
	C503.802399,279.991608 503.751465,252.163498 503.710663,224.335388 
	C503.698364,215.939041 502.225342,207.796524 499.498016,199.867371 
	C490.564880,173.895737 459.834473,163.037720 436.237976,177.488663 
	C432.978455,179.484848 431.843872,181.352829 435.586639,184.123444 
	C447.094788,192.642487 452.412109,204.474915 453.174561,218.465897 
	C453.349335,221.673477 454.645233,223.204269 457.388641,224.371841 
	C461.847565,226.269501 466.018127,228.748947 469.612366,232.039703 
	C472.902527,235.052109 473.420349,238.829712 471.031250,242.415131 
	C468.646667,245.993820 465.206696,247.333282 460.511047,244.184265 
z"/>
<path fill="#000000" opacity="1.000000" stroke="none" 
	d="
M707.868530,623.134766 
	C709.588806,619.986633 712.415344,619.952271 715.017700,619.889954 
	C721.345032,619.738281 727.679443,619.771484 734.008972,619.865234 
	C738.682861,619.934387 741.911804,621.890137 744.240723,626.350708 
	C755.260925,647.458008 766.590088,668.404236 777.853577,689.383972 
	C778.764893,691.081421 779.278259,693.163147 781.894226,694.297485 
	C784.940247,688.648315 788.005249,683.012756 791.025452,677.353333 
	C800.042725,660.456482 809.196045,643.629150 817.948547,626.596130 
	C820.348816,621.924988 823.653076,619.996460 828.568481,619.980103 
	C834.233154,619.961243 839.898499,619.834290 845.562134,619.893982 
	C853.497864,619.977600 854.856445,621.239685 854.901367,629.246094 
	C855.020081,650.405029 855.050781,671.564941 855.010010,692.724182 
	C854.973755,711.548523 854.884705,730.373840 854.627625,749.196106 
	C854.542969,755.398987 853.011414,756.805481 846.937378,757.079651 
	C842.782532,757.267090 838.601074,757.243591 834.448181,757.013428 
	C827.244263,756.614136 825.760193,755.004944 825.741699,747.818359 
	C825.710754,735.822510 825.777405,723.826355 825.786011,711.830322 
	C825.796265,697.533936 825.788513,683.237549 825.788513,668.418640 
	C823.339478,670.114136 822.728943,672.407715 821.646912,674.346130 
	C811.907593,691.794189 802.138306,709.225891 792.508057,726.734070 
	C790.801270,729.837158 788.645264,731.028076 785.072083,731.478882 
	C775.582275,732.676331 770.037781,729.411560 765.659546,720.397156 
	C756.869263,702.298401 746.580139,684.927673 736.429810,666.379700 
	C735.400940,673.612061 735.228516,679.917480 735.487854,686.222534 
	C736.343933,707.039307 735.796936,727.865295 735.980042,748.686096 
	C736.040344,755.545410 734.608154,756.911560 727.854431,757.135925 
	C723.526367,757.279724 719.190796,757.302246 714.860413,757.243896 
	C708.901245,757.163574 707.202393,755.572083 707.027344,749.439026 
	C706.841919,742.946533 706.966431,736.444763 706.975220,729.947083 
	C707.017273,698.798035 707.041748,667.648865 707.140320,636.499939 
	C707.153992,632.177124 707.544861,627.855408 707.868530,623.134766 
z"/>
<path fill="#000000" opacity="1.000000" stroke="none" 
	d="
M169.683792,694.999878 
	C169.719971,672.501526 169.752304,650.503174 169.795151,628.504822 
	C169.808777,621.507996 170.633011,620.660706 177.475739,620.642090 
	C183.475281,620.625793 189.484070,620.856140 195.471420,620.588806 
	C199.663437,620.401672 201.784637,622.437256 203.554352,625.876892 
	C214.070526,646.316406 224.701721,666.696777 235.330246,687.078247 
	C236.222916,688.790039 236.742752,690.840820 239.125259,691.955322 
	C244.054535,684.453125 247.933517,676.377563 252.102356,668.474731 
	C259.641479,654.182739 267.197479,639.897827 274.518860,625.494263 
	C276.432770,621.728821 279.229187,619.943359 283.154938,619.844971 
	C288.983337,619.698853 294.820190,619.755066 300.650635,619.868469 
	C305.165649,619.956238 307.452484,621.837097 307.434174,626.934937 
	C307.286774,667.931763 307.373932,708.929443 307.365021,749.926819 
	C307.363770,755.632751 306.133301,756.958557 300.369141,757.197754 
	C296.043274,757.377258 291.703278,757.325378 287.372131,757.242493 
	C280.994720,757.120605 279.468170,755.468933 279.483765,749.128357 
	C279.542786,725.130798 279.584778,701.133301 279.632263,677.135742 
	C279.635864,675.309204 279.632751,673.482605 278.705444,671.196228 
	C277.798248,672.755371 276.839386,674.286926 275.991882,675.877808 
	C267.377502,692.048157 258.600464,708.135925 250.279099,724.455872 
	C247.400009,730.102356 242.869705,730.185974 237.735672,730.361328 
	C232.977356,730.523987 230.074234,728.684082 227.800705,724.468567 
	C218.477539,707.181824 208.879303,690.043396 198.233444,672.969299 
	C198.233444,674.788330 198.232559,676.607422 198.233551,678.426453 
	C198.246155,701.758179 198.275269,725.089966 198.262177,748.421692 
	C198.258133,755.624146 196.637375,757.220215 189.457565,757.288147 
	C185.458176,757.325989 181.457230,757.349548 177.458618,757.282471 
	C171.468628,757.182007 169.694107,755.479797 169.678268,749.497192 
	C169.630615,731.498291 169.675323,713.499023 169.683792,694.999878 
z"/>
<path fill="#000000" opacity="1.000000" stroke="none" 
	d="
M425.642151,707.000000 
	C425.644867,692.840393 425.631683,679.180725 425.659607,665.521179 
	C425.672180,659.370667 427.101440,657.969788 433.322571,657.850159 
	C434.987701,657.818115 436.654022,657.852966 438.319794,657.848633 
	C447.571564,657.824585 448.291199,658.381836 450.139313,668.019592 
	C458.152771,661.041443 466.428040,655.347107 477.245270,656.072205 
	C487.815491,656.780945 496.516022,660.823669 502.155518,670.762207 
	C505.202637,668.379395 507.768768,666.324158 510.385162,664.334961 
	C523.620361,654.272644 540.459900,653.328308 552.099426,662.180786 
	C560.799133,668.797546 564.289001,678.307190 565.235779,688.673401 
	C567.101196,709.097595 566.118347,729.604370 566.372559,750.076416 
	C566.420654,753.949585 564.555298,755.945435 560.972717,756.655823 
	C555.853943,757.670898 550.694824,757.539734 545.574158,756.824707 
	C541.775513,756.294250 540.572632,753.815735 540.602112,750.048889 
	C540.737549,732.725586 540.683533,715.400452 540.655273,698.076111 
	C540.637207,687.001404 534.854065,680.316895 525.432983,680.371033 
	C515.552246,680.427795 508.345795,688.044250 508.328217,698.525208 
	C508.299713,715.516479 508.328400,732.507812 508.296906,749.499023 
	C508.286011,755.370544 506.838104,756.919006 501.033356,757.176514 
	C497.707916,757.324097 494.369629,757.300293 491.040405,757.219360 
	C484.415283,757.058350 482.710388,755.397095 482.709686,748.866272 
	C482.707886,732.042358 482.772156,715.218323 482.846130,698.394470 
	C482.893860,687.534485 476.607788,680.260254 467.193939,680.370667 
	C457.765503,680.481201 451.198944,687.171448 451.134949,697.102783 
	C451.024414,714.259766 451.129089,731.418030 451.078796,748.575500 
	C451.055573,756.493225 450.337738,757.162537 442.567383,757.210938 
	C439.069458,757.232727 435.570923,757.220154 432.073151,757.179199 
	C427.677948,757.127747 425.475128,755.322388 425.549591,750.476868 
	C425.769623,736.154175 425.637421,721.825989 425.642151,707.000000 
z"/>
<path fill="#000000" opacity="1.000000" stroke="none" 
	d="
M665.817993,753.316711 
	C663.164001,750.296814 661.217529,746.211487 658.217407,745.174500 
	C654.796997,743.992249 652.350098,748.680359 649.188293,750.383179 
	C633.373657,758.900208 616.974854,760.966431 600.273376,753.887817 
	C586.083435,747.873596 578.664917,733.892883 579.245300,718.478027 
	C579.773926,704.438538 586.015869,694.128723 597.396118,686.478333 
	C599.454285,685.094604 601.437134,683.598755 603.414734,682.183411 
	C603.529541,679.535522 601.631165,678.161560 600.367126,676.510376 
	C593.156128,667.090515 590.730957,656.458130 593.111084,644.988647 
	C595.886230,631.615723 608.140930,622.352539 623.188477,621.729126 
	C626.497192,621.592041 629.877869,621.610107 633.136780,622.121521 
	C647.644470,624.398010 657.113892,632.437744 660.017761,647.093933 
	C662.996887,662.130188 658.141479,674.229858 645.468262,683.083313 
	C643.464844,684.482849 640.968140,685.307251 639.441956,688.028809 
	C645.380005,695.376465 651.332336,702.816589 658.470642,709.876648 
	C662.423523,704.681458 663.817017,699.002808 665.982056,693.669617 
	C667.044495,691.052307 667.011353,687.366455 670.781311,686.709656 
	C676.042664,685.793030 681.532410,684.891907 686.341858,687.847107 
	C689.583679,689.839172 688.565125,693.493713 687.774597,696.538391 
	C685.415222,705.625732 681.411438,714.060913 676.638062,722.071228 
	C674.199524,726.163269 674.419067,729.066650 677.757080,732.538574 
	C682.593872,737.569397 686.972229,743.050293 691.416321,748.446228 
	C694.160278,751.777893 693.595276,755.560425 689.825378,756.396667 
	C682.831299,757.948120 675.653931,758.159119 668.689880,755.836182 
	C667.677063,755.498352 666.930054,754.363708 665.817993,753.316711 
M637.161133,719.327820 
	C633.163147,714.661255 629.186218,709.976501 625.162781,705.331970 
	C617.144714,696.076111 614.889771,696.125366 607.147095,705.939575 
	C605.726013,707.740845 604.516296,709.805115 603.644531,711.926880 
	C599.691162,721.548401 605.953735,734.240173 616.140808,736.234497 
	C622.979492,737.573364 629.990967,737.385498 636.505615,733.832275 
	C644.781006,729.318604 644.939209,728.935242 639.173584,721.819580 
	C638.650757,721.174316 638.137878,720.520996 637.161133,719.327820 
M634.774109,666.222717 
	C637.514465,663.308044 638.780029,659.754944 639.028320,655.850769 
	C639.358337,650.660950 637.734253,646.164978 632.934631,643.732483 
	C628.188416,641.327271 623.194946,641.487854 618.858948,644.861877 
	C614.613770,648.165222 613.537781,652.534546 615.157776,657.757507 
	C615.961792,660.349792 617.067078,662.670715 618.648865,664.827026 
	C625.138306,673.673462 625.975891,673.779907 634.774109,666.222717 
z"/>
<path fill="#000000" opacity="1.000000" stroke="none" 
	d="
M377.000244,714.333984 
	C367.838165,714.330139 359.175964,714.295227 350.514038,714.330505 
	C345.261597,714.351807 344.827911,714.958191 346.283966,719.756226 
	C351.160767,735.826416 366.523560,742.489441 381.616821,735.030273 
	C384.299469,733.704468 386.775665,731.942139 389.500732,730.725281 
	C394.018768,728.707764 398.576935,728.767883 402.823303,731.564697 
	C408.806030,735.505249 409.097443,739.717590 403.975891,744.681213 
	C388.940430,759.253113 371.163330,762.704102 351.885681,755.971130 
	C333.150330,749.427490 323.469330,734.868469 320.533936,715.606018 
	C316.738007,690.696594 329.117920,666.543213 350.814941,659.137695 
	C382.515228,648.317932 415.106201,667.557312 413.259949,706.793091 
	C413.026886,711.746216 410.087891,714.193298 404.485718,714.270447 
	C395.491974,714.394470 386.495544,714.322021 377.000244,714.333984 
M356.996582,678.396912 
	C352.049805,681.105408 349.381378,685.586487 347.282745,690.598145 
	C345.750275,694.257690 346.578979,695.732239 350.728729,695.675903 
	C362.022369,695.522583 373.319397,695.630249 384.614990,695.598267 
	C385.719940,695.595093 386.992523,695.868958 387.742249,694.618835 
	C388.560974,682.029724 373.072815,670.240234 356.996582,678.396912 
z"/>
<path fill="#000000" opacity="1.000000" stroke="none" 
	d="
M258.510284,822.429810 
	C257.953156,818.489197 258.170807,815.015137 258.534668,811.524292 
	C258.748566,809.471741 258.754456,807.378235 261.366180,806.942871 
	C264.027771,806.499084 266.262207,806.999512 267.601074,809.775513 
	C269.984802,814.717896 272.507233,819.593750 274.999634,824.483154 
	C275.881805,826.213745 276.338562,828.596497 278.784485,828.636719 
	C281.524384,828.681763 281.947540,826.087524 282.882294,824.213745 
	C285.110382,819.747253 287.362946,815.291199 289.484222,810.773865 
	C290.845917,807.874146 292.751678,806.221924 296.138824,806.981323 
	C299.511078,807.737183 299.262573,810.389404 299.264343,812.898071 
	C299.271423,822.885498 299.267426,832.872986 299.258881,842.860413 
	C299.256531,845.618774 299.326874,848.291626 295.313049,848.362793 
	C290.976807,848.439514 291.256989,845.538879 291.063202,842.627747 
	C290.741272,837.790833 291.912750,832.843628 290.340027,827.200378 
	C286.928925,830.985046 285.701294,834.962524 283.867340,838.577820 
	C282.780609,840.720093 281.695862,842.544678 278.738953,842.499390 
	C275.835388,842.454834 274.814941,840.658447 273.601410,838.557312 
	C271.581299,835.059631 270.695343,830.858032 267.164581,827.625183 
	C265.494934,832.093018 266.630280,836.248108 266.286377,840.275879 
	C266.159271,841.764709 266.261230,843.271667 266.183655,844.766479 
	C266.039398,847.546875 264.334747,848.362732 261.799225,848.329468 
	C259.016968,848.292908 258.564026,846.558044 258.563049,844.342041 
	C258.559937,837.189209 258.543152,830.036316 258.510284,822.429810 
z"/>
<path fill="#000000" opacity="1.000000" stroke="none" 
	d="
M183.770599,816.286377 
	C186.785538,821.197998 187.932632,826.810791 192.618042,831.193115 
	C195.349762,825.655334 197.820053,820.617126 200.320007,815.593567 
	C201.431854,813.359253 202.502213,811.094482 203.774841,808.952576 
	C205.219421,806.521301 207.593689,806.566833 209.972153,807.120667 
	C212.323120,807.668030 212.329437,809.590271 212.327576,811.476257 
	C212.316879,822.302917 212.282227,833.129700 212.324814,843.956177 
	C212.335602,846.697449 211.641525,848.367615 208.412720,848.337341 
	C205.103043,848.306213 204.638519,846.439514 204.662155,843.798279 
	C204.718231,837.535034 204.680176,831.270874 203.906784,824.824768 
	C201.546768,829.522644 199.119797,834.188599 196.855377,838.932190 
	C195.747437,841.253052 194.283676,842.713379 191.546890,842.656677 
	C188.943710,842.602722 187.790482,840.904846 186.773468,838.885742 
	C184.772507,834.913025 182.714767,830.968933 180.291458,826.256470 
	C178.205902,830.881653 179.371780,834.843628 179.087158,838.651001 
	C178.938538,840.638977 179.090973,842.647766 178.997757,844.642029 
	C178.889435,846.959045 177.850464,848.296265 175.272186,848.311584 
	C172.608887,848.327393 171.094025,847.248413 171.084671,844.559265 
	C171.046402,833.567444 171.048523,822.575378 171.088928,811.583557 
	C171.097580,809.229370 171.895065,807.277771 174.613388,806.925720 
	C177.135269,806.599060 179.235870,807.224976 180.452621,809.709778 
	C181.477692,811.803223 182.544159,813.876404 183.770599,816.286377 
z"/>
<path fill="#000000" opacity="1.000000" stroke="none" 
	d="
M673.887817,806.761353 
	C677.026489,806.909058 677.430359,808.864502 677.597412,810.955444 
	C678.487000,822.090393 677.924133,833.240601 677.885864,844.384277 
	C677.880066,846.085938 677.397583,847.764160 675.332153,848.165527 
	C673.023926,848.614014 671.071655,848.071716 669.637695,846.040405 
	C665.799377,840.603210 661.954712,835.169861 658.045288,829.783752 
	C657.021484,828.373169 656.411194,826.444519 654.021912,826.075928 
	C652.118347,829.671570 653.419739,833.538696 653.115662,837.229919 
	C652.938477,839.380249 653.097961,841.556152 653.033447,843.718384 
	C652.957703,846.256531 652.377380,848.306824 649.135803,848.342041 
	C645.864258,848.377502 644.708252,846.726746 644.721375,843.709045 
	C644.751099,836.884460 644.716309,830.059570 644.709717,823.234802 
	C644.706177,819.572693 644.684753,815.910400 644.713440,812.248535 
	C644.730408,810.084839 644.527649,807.727295 647.345154,807.000427 
	C649.908386,806.339172 651.932068,807.319946 653.419983,809.401245 
	C656.903198,814.273315 660.294434,819.211975 663.830200,824.045227 
	C664.925354,825.542236 665.666870,828.202271 668.176086,827.295471 
	C670.242126,826.548767 669.628845,824.166138 669.666687,822.406494 
	C669.749084,818.579651 669.722046,814.749817 669.696899,810.921509 
	C669.680115,808.359863 670.647278,806.747620 673.887817,806.761353 
z"/>
<path fill="#000000" opacity="1.000000" stroke="none" 
	d="
M591.612061,826.686401 
	C588.801880,827.393188 589.419556,829.497803 589.386353,831.213196 
	C589.305786,835.368835 589.327881,839.527588 589.376160,843.684265 
	C589.406311,846.278198 588.995117,848.259766 585.681458,848.315491 
	C582.143860,848.374878 581.624695,846.337097 581.637085,843.492432 
	C581.682861,833.016357 581.627502,822.539856 581.660767,812.063721 
	C581.666870,810.137939 581.204346,807.832031 583.813904,807.074646 
	C586.303162,806.352051 588.438049,807.103638 589.960510,809.229797 
	C593.539185,814.227600 597.018494,819.297668 600.660461,824.248474 
	C601.781433,825.772339 602.417114,827.935791 604.845276,828.261169 
	C606.843445,826.944641 606.571594,824.832642 606.613342,822.905884 
	C606.699890,818.916565 606.709961,814.923950 606.660095,810.933838 
	C606.627991,808.360107 607.526489,806.797180 610.343933,806.738525 
	C612.968323,806.683899 614.480469,807.850586 614.599976,810.492310 
	C614.780029,814.473938 614.918762,818.460083 614.952148,822.445251 
	C615.009216,829.262573 615.019470,836.081116 614.943726,842.898010 
	C614.920410,844.994934 615.181458,847.507446 612.346802,848.164673 
	C609.884827,848.735596 607.800354,847.969116 606.263672,845.790283 
	C602.432434,840.358215 598.527954,834.977844 594.670715,829.563965 
	C593.899902,828.482117 593.265686,827.288818 591.612061,826.686401 
z"/>
<path fill="#000000" opacity="1.000000" stroke="none" 
	d="
M507.415833,830.408325 
	C504.691620,835.277039 508.704346,838.019226 510.195160,841.484985 
	C511.077759,843.536743 514.392334,845.158569 511.827393,847.880432 
	C510.200500,849.606934 504.721588,848.119507 503.050354,845.609680 
	C501.300537,842.981934 499.779236,840.202637 498.135437,837.503357 
	C496.972015,835.592957 495.310974,834.650269 493.079681,835.335571 
	C490.985931,835.978577 491.245819,837.864685 491.175812,839.491638 
	C491.104279,841.153076 491.149750,842.819153 491.118622,844.482788 
	C491.061981,847.510193 489.299072,848.393188 486.528717,848.387878 
	C483.756073,848.382507 482.650269,847.141296 482.659454,844.451416 
	C482.697601,833.300598 482.693298,822.149597 482.654694,810.998779 
	C482.645721,808.410889 483.611145,806.799805 486.367920,806.786682 
	C490.693054,806.765991 495.067535,806.409607 499.334564,806.919495 
	C511.206573,808.338013 515.139404,819.551270 507.415833,830.408325 
M498.710052,814.695007 
	C495.317535,814.081787 491.966980,814.160217 491.424591,818.414551 
	C491.081604,821.104980 489.680664,824.643860 493.331970,826.377808 
	C496.611755,827.935181 501.233521,826.112061 502.809326,822.913757 
	C504.739685,818.995850 502.916473,816.604858 498.710052,814.695007 
z"/>
<path fill="#000000" opacity="1.000000" stroke="none" 
	d="
M700.714172,806.943604 
	C707.657715,806.100769 713.943542,806.495300 718.453430,812.070007 
	C719.994080,813.974426 722.791626,816.644714 720.217834,818.973022 
	C717.610352,821.331726 714.553772,820.362488 712.034058,817.412476 
	C707.357666,811.937256 699.704529,813.552307 696.909424,820.585205 
	C694.931213,825.562561 695.047546,830.766724 697.282104,835.641541 
	C700.331848,842.294678 708.463806,843.534668 712.912598,838.225891 
	C715.375977,835.286438 714.810974,833.514832 711.087524,832.772766 
	C709.624878,832.481262 708.113098,832.427856 706.621338,832.293213 
	C704.555481,832.106873 703.785583,830.878601 703.756836,828.930542 
	C703.726868,826.900696 704.635620,825.748291 706.686768,825.729004 
	C711.017761,825.688232 715.349731,825.688965 719.680603,825.734009 
	C721.226807,825.750061 721.935669,826.630188 722.281982,828.189819 
	C724.046570,836.138123 721.276245,843.127258 714.786499,846.754333 
	C708.445679,850.298218 698.311829,849.187744 693.213318,844.442749 
	C684.050903,835.915771 683.626892,811.578735 700.714172,806.943604 
z"/>
<path fill="#000000" opacity="1.000000" stroke="none" 
	d="
M334.787659,847.163086 
	C322.195648,851.761841 312.116638,847.249390 308.592285,835.081177 
	C305.166473,823.253296 309.445282,810.169006 320.884186,807.357849 
	C337.821808,803.195374 346.565491,816.524719 345.046844,830.575989 
	C344.312927,837.366394 341.554413,843.401672 334.787659,847.163086 
M332.144897,816.209717 
	C325.672180,812.286987 320.053894,813.973450 317.385925,820.856995 
	C315.521393,825.667603 315.651825,830.671265 317.659912,835.373230 
	C319.219666,839.025452 321.927399,841.738647 326.360718,841.652283 
	C330.907196,841.563721 333.751831,839.007019 335.272583,834.954163 
	C337.712708,828.450928 337.143829,822.298035 332.144897,816.209717 
z"/>
<path fill="#000000" opacity="1.000000" stroke="none" 
	d="
M379.699158,829.558838 
	C377.038116,831.991150 376.979767,834.261047 378.885345,836.836121 
	C380.066162,838.431763 381.072235,840.180664 381.970428,841.955078 
	C382.913239,843.817627 385.965485,845.968872 382.937134,847.792175 
	C380.632294,849.179871 377.276672,849.062256 375.303772,846.271912 
	C373.293335,843.428589 371.459595,840.444214 369.757080,837.404785 
	C368.550110,835.250061 367.135681,834.254944 364.548981,834.752136 
	C361.399384,835.357422 362.544220,837.719421 362.379639,839.483459 
	C362.194916,841.463501 362.296265,843.470398 362.274384,845.465576 
	C362.242554,848.367859 360.140320,848.372314 358.087463,848.476379 
	C355.969757,848.583740 354.550903,848.037781 354.553375,845.497498 
	C354.564362,834.212952 354.539093,822.928162 354.445618,811.644104 
	C354.415497,808.005005 356.128235,806.536560 359.653534,806.733459 
	C363.627563,806.955627 367.628296,806.387024 371.587158,807.209534 
	C382.742554,809.527283 386.406189,819.188293 379.699158,829.558838 
M367.396362,826.650024 
	C368.691528,826.483215 370.090302,826.572632 371.261475,826.099121 
	C374.201355,824.910278 375.732849,822.540222 374.962250,819.424622 
	C373.946533,815.317932 370.537262,814.416687 366.862061,814.485046 
	C363.166260,814.553711 362.244965,817.026123 362.366425,820.220886 
	C362.480377,823.217651 361.404633,826.978516 367.396362,826.650024 
z"/>
<path fill="#000000" opacity="1.000000" stroke="none" 
	d="
M523.769165,831.935669 
	C526.442871,824.711731 529.112549,817.900452 531.557617,811.009521 
	C532.527039,808.277344 534.143433,806.913757 537.017700,806.850342 
	C539.884949,806.787109 541.092957,808.567261 541.973755,810.914917 
	C545.885437,821.340698 549.880859,831.735474 553.728882,842.184570 
	C554.430664,844.090271 556.939880,846.679260 553.341370,848.000061 
	C550.359131,849.094666 547.272949,848.652710 546.150513,844.834900 
	C544.833435,840.355286 541.706970,839.362427 537.373718,839.271484 
	C532.394775,839.167053 528.631287,839.807190 527.294800,845.520020 
	C526.484314,848.984253 523.286194,848.865173 520.732605,848.036072 
	C517.489624,846.983215 519.325195,844.525452 519.958374,842.632935 
	C521.117737,839.167480 522.427795,835.752441 523.769165,831.935669 
M535.173706,824.006958 
	C534.297546,826.229065 532.306274,828.543030 533.926086,830.848328 
	C535.292908,832.793518 537.667847,832.284241 539.723145,831.279907 
	C540.353394,829.043030 539.796143,827.013977 538.959167,825.056458 
	C538.327637,823.579590 537.787231,821.634277 535.173706,824.006958 
z"/>
<path fill="#000000" opacity="1.000000" stroke="none" 
	d="
M753.367615,846.477478 
	C751.109314,849.018066 748.459351,849.061829 746.417847,847.514099 
	C744.592041,846.129944 745.872253,843.843567 746.558228,841.979675 
	C750.288818,831.843506 754.034424,821.712769 757.723511,811.561584 
	C758.697388,808.881836 759.966553,806.801270 763.284912,806.832764 
	C766.418030,806.862488 767.537964,808.938904 768.453552,811.381470 
	C772.361572,821.806580 776.334534,832.208069 780.140015,842.670471 
	C780.783081,844.438354 782.845032,847.043274 779.565369,848.107544 
	C776.900330,848.972290 773.626160,849.093872 772.693298,845.299316 
	C771.458069,840.274597 768.247742,839.414185 763.493164,839.183044 
	C757.860779,838.909180 754.646484,840.605347 753.367615,846.477478 
M766.048645,828.943542 
	C765.647644,826.481445 765.761963,823.723999 762.703979,822.642639 
	C760.093506,826.800903 759.992737,827.169189 760.269287,831.600769 
	C762.421326,831.584106 765.077698,833.545715 766.048645,828.943542 
z"/>
<path fill="#000000" opacity="1.000000" stroke="none" 
	d="
M222.676392,821.014038 
	C222.686340,817.355225 222.753326,814.192627 222.688690,811.032776 
	C222.628357,808.082886 224.073288,806.758606 226.922348,806.756165 
	C232.745865,806.751343 238.569397,806.754028 244.392868,806.737183 
	C247.044357,806.729492 248.281708,807.911682 248.336929,810.672791 
	C248.394852,813.569702 247.023224,814.447388 244.388672,814.401611 
	C241.230392,814.346741 238.068634,814.532410 234.908768,814.519592 
	C231.596542,814.506226 231.308701,816.581116 231.308731,819.184448 
	C231.308762,821.870117 231.809601,823.792969 235.085678,823.683533 
	C237.744308,823.594727 240.409668,823.730469 243.071335,823.701843 
	C245.501587,823.675720 246.866547,824.840881 246.963776,827.237183 
	C247.069916,829.853210 245.756577,831.273926 243.059662,831.281067 
	C240.896698,831.286804 238.728500,831.411011 236.572037,831.299866 
	C233.261841,831.129333 231.253891,831.866028 231.246964,835.899048 
	C231.240372,839.744324 232.836975,840.883240 236.346542,840.716736 
	C239.499466,840.567139 242.667023,840.730103 245.828156,840.748535 
	C248.355698,840.763306 249.326859,842.108459 249.326416,844.541382 
	C249.325958,846.956970 248.424484,848.330017 245.854202,848.322510 
	C239.531647,848.303955 233.208878,848.285950 226.886475,848.319153 
	C223.542984,848.336670 222.665375,846.387268 222.680176,843.475220 
	C222.717407,836.154114 222.682175,828.832764 222.676392,821.014038 
z"/>
<path fill="#000000" opacity="1.000000" stroke="none" 
	d="
M797.741821,836.960327 
	C797.468445,839.488831 797.274841,841.641785 797.295776,843.792603 
	C797.325439,846.838013 796.154419,848.375916 792.882935,848.363403 
	C789.519043,848.350525 788.640747,846.627869 788.658325,843.653503 
	C788.721130,833.027100 788.764832,822.399170 788.642578,811.773804 
	C788.600586,808.121277 790.160950,806.566040 793.687805,806.723877 
	C798.477417,806.938171 803.296509,806.216736 808.054382,807.503845 
	C814.478943,809.241760 818.331970,814.183228 818.313843,820.982666 
	C818.295959,827.700500 814.237183,832.642578 807.897644,834.401794 
	C804.593506,835.318665 800.865295,834.189941 797.741821,836.960327 
M800.126038,814.623962 
	C797.063538,816.836731 795.854980,825.825317 798.671814,827.020203 
	C801.752991,828.327332 805.247986,828.265259 807.989929,825.857544 
	C810.587219,823.576965 810.577026,820.377136 809.154907,817.662537 
	C807.501404,814.506409 804.168640,814.238525 800.126038,814.623962 
z"/>
<path fill="#000000" opacity="1.000000" stroke="none" 
	d="
M855.361816,820.981567 
	C854.961121,829.217407 851.294678,833.257568 843.267639,834.748901 
	C835.061462,836.273499 834.966248,836.266846 834.397034,844.523621 
	C834.208313,847.260986 833.161194,848.380371 830.438721,848.343689 
	C828.091675,848.312134 826.574951,847.674255 826.547729,845.022461 
	C826.428833,833.420837 825.967896,821.819641 826.613281,810.218445 
	C826.739258,807.953674 827.982056,806.863831 830.101562,806.853394 
	C834.582825,806.831238 839.128418,806.478333 843.532410,807.090515 
	C851.578491,808.209167 854.899414,812.309814 855.361816,820.981567 
M840.518982,814.411072 
	C835.244507,813.527466 833.610046,816.091003 834.387939,820.907776 
	C834.754333,823.176392 833.259644,826.084961 836.555115,827.364502 
	C840.576721,828.926086 845.768311,826.937561 847.170044,823.311829 
	C848.724304,819.291565 846.602600,816.106567 840.518982,814.411072 
z"/>
<path fill="#000000" opacity="1.000000" stroke="none" 
	d="
M419.818542,812.769531 
	C417.516510,816.846313 415.622711,820.756470 413.233246,824.335693 
	C409.505768,829.919189 407.566711,835.810242 408.263489,842.591614 
	C408.523376,845.120850 408.920624,848.234985 404.692719,848.222839 
	C400.851898,848.211792 400.367096,845.657593 400.699371,842.801880 
	C401.526428,835.693542 399.542206,829.446045 395.647583,823.558716 
	C393.363861,820.106628 391.453613,816.395813 389.540253,812.715576 
	C388.647919,810.999268 386.253601,808.817078 389.292999,807.277100 
	C391.685913,806.064636 394.662903,806.062256 396.419830,808.779907 
	C398.216400,811.558838 399.660889,814.565125 401.264069,817.469421 
	C403.583527,821.671204 405.393066,821.764343 407.910370,817.714111 
	C409.223419,815.601440 410.337158,813.365845 411.577698,811.206909 
	C412.154541,810.203003 412.698212,809.139343 413.467743,808.294922 
	C415.436584,806.134644 418.224945,806.058044 420.338043,807.252258 
	C422.762299,808.622375 420.747101,810.722168 419.818542,812.769531 
z"/>
<path fill="#000000" opacity="1.000000" stroke="none" 
	d="
M468.817108,806.733032 
	C472.330627,806.596130 474.444031,807.241577 474.365387,811.065125 
	C474.282349,815.100403 471.499725,814.375000 469.129242,814.520203 
	C463.151337,814.886414 462.368164,815.676086 462.342560,821.765625 
	C462.313171,828.757935 462.303528,835.750732 462.350037,842.742859 
	C462.370331,845.789856 462.286499,848.460327 458.033844,848.355896 
	C453.867462,848.253601 453.736908,845.536072 453.738342,842.537964 
	C453.741699,835.545532 453.756592,828.553040 453.727356,821.560669 
	C453.698364,814.616821 453.674500,814.641724 446.853973,814.354614 
	C444.959320,814.274902 442.549316,814.905640 441.957062,812.142151 
	C441.207001,808.642151 442.544098,806.747559 446.363800,806.776489 
	C453.688568,806.832031 461.014343,806.754456 468.817108,806.733032 
z"/>
<path fill="#000000" opacity="1.000000" stroke="none" 
	d="
M625.651733,840.897949 
	C625.653320,830.923462 625.684998,821.436462 625.639771,811.949768 
	C625.625854,809.023987 625.861450,806.610291 629.782043,806.699463 
	C633.398743,806.781677 634.243469,808.840210 634.236328,811.909729 
	C634.213379,821.729370 634.276489,831.549316 634.235596,841.368835 
	C634.221985,844.622986 634.946167,848.460327 629.626770,848.317078 
	C624.420593,848.176819 625.971863,844.269043 625.651733,840.897949 
z"/>
<path fill="#000000" opacity="1.000000" stroke="none" 
	d="
M571.072205,833.983643 
	C571.065796,837.796387 571.126099,841.114380 571.026001,844.427551 
	C570.939148,847.300598 569.322632,848.438477 566.468262,848.371826 
	C563.692139,848.307129 562.649231,846.992493 562.656616,844.359863 
	C562.687866,833.249573 562.684448,822.138977 562.651733,811.028687 
	C562.644409,808.523621 563.395874,806.854614 566.242859,806.747375 
	C569.321594,806.631409 571.000000,808.047852 571.028320,811.101501 
	C571.097534,818.562744 571.062317,826.024963 571.072205,833.983643 
z"/>
<path fill="#000000" opacity="1.000000" stroke="none" 
	d="
M590.495239,387.001953 
	C591.574036,380.720276 590.744385,379.364105 585.091736,377.626801 
	C572.535095,373.767639 562.137634,379.061737 557.661133,391.679382 
	C556.184387,395.841736 553.538208,398.102600 548.996338,397.379242 
	C544.385864,396.644989 542.482300,393.437805 542.691528,389.165100 
	C543.264160,377.470490 549.882935,369.709015 559.887756,364.740662 
	C570.372131,359.534119 581.426392,358.913971 592.322693,363.236969 
	C596.850708,365.033417 599.543213,364.187042 602.607361,360.680634 
	C610.170410,352.026123 620.176331,347.709778 631.330139,345.906067 
	C635.666016,345.204926 639.758179,345.817963 642.158997,350.150604 
	C644.024292,353.516663 643.192383,356.607849 640.626831,359.271759 
	C638.241516,361.748474 634.943237,361.944275 631.853638,362.299866 
	C609.482910,364.874725 601.154358,391.095886 608.677979,407.231964 
	C610.716858,411.604889 614.107788,414.719543 617.790039,417.659393 
	C622.531311,421.444763 623.424377,425.432037 620.607178,429.235870 
	C617.683655,433.183197 613.239624,433.609436 608.211853,430.424652 
	C594.239868,421.574188 586.974182,404.014801 590.495239,387.001953 
z"/>
<path fill="#000000" opacity="1.000000" stroke="none" 
	d="
M635.917480,458.417114 
	C654.346130,459.633453 665.898315,448.410858 665.133484,430.503174 
	C664.934570,425.845917 668.018616,422.171509 672.340393,421.916534 
	C676.360107,421.679321 679.707703,424.810242 680.362366,429.160522 
	C682.329651,442.232483 677.421814,453.007446 669.085388,462.522430 
	C666.897888,465.019104 666.155884,467.254181 666.803894,470.598053 
	C672.053772,497.687775 651.559998,523.735352 623.991577,525.239624 
	C618.743652,525.526001 614.352844,522.278992 613.808105,517.709045 
	C613.269958,513.193970 616.635559,509.527130 622.587463,508.917999 
	C632.223694,507.931763 640.101135,503.894867 646.088440,496.301086 
	C650.397644,490.835663 652.411133,484.623993 651.472412,477.632751 
	C651.105164,474.896973 650.292908,473.097626 646.610229,473.863464 
	C643.084167,474.596741 639.311096,474.419250 635.666443,474.239777 
	C630.353333,473.978149 626.760559,470.389648 626.853027,465.886414 
	C626.947205,461.293823 629.729675,458.869812 635.917480,458.417114 
z"/>
<path fill="#000000" opacity="1.000000" stroke="none" 
	d="
M579.511963,511.846802 
	C581.231628,516.867615 579.419861,520.110657 575.175293,521.904358 
	C571.123657,523.616516 566.353577,521.332153 564.169067,516.537476 
	C558.385986,503.844727 557.700562,490.953735 564.941589,478.715912 
	C567.969421,473.598755 568.127808,470.465729 563.748108,466.093903 
	C558.245667,460.601410 555.501465,453.270355 554.004089,445.620056 
	C552.929565,440.130219 555.202454,435.758362 559.452515,434.819183 
	C564.705688,433.658264 568.047668,436.168243 569.508362,442.371552 
	C573.179260,457.961212 583.088074,466.785309 600.139221,469.649261 
	C605.894714,470.615997 608.433960,473.161377 608.312500,477.842529 
	C608.204407,482.010620 605.376465,485.069611 601.167542,485.285034 
	C595.925354,485.553406 590.924561,484.112000 586.078552,482.397461 
	C582.684875,481.196808 580.757629,482.274567 579.215576,485.162872 
	C574.513794,493.969452 575.054749,502.725616 579.511963,511.846802 
z"/>
<path fill="#000000" opacity="1.000000" stroke="none" 
	d="
M580.912109,250.119751 
	C584.834473,255.987289 584.065430,259.315430 578.380127,262.627991 
	C566.540222,269.526520 562.230774,278.519104 564.420654,291.757172 
	C566.496033,304.302856 575.478882,313.398071 588.030884,315.671265 
	C589.827942,315.996735 591.628357,316.311584 593.412476,316.699310 
	C598.260803,317.752869 600.637451,320.642303 600.271973,324.976868 
	C599.894836,329.450104 596.261902,332.824432 591.245972,332.244415 
	C576.397400,330.527374 563.271667,324.835266 555.361145,311.621826 
	C546.073792,296.108612 544.191528,279.747375 553.963196,263.404358 
	C558.430603,255.932602 565.279907,251.373215 573.188232,248.206818 
	C576.027588,247.069977 578.368164,248.268906 580.912109,250.119751 
z"/>
<path fill="#000000" opacity="1.000000" stroke="none" 
	d="
M450.435852,438.389343 
	C449.185181,439.699677 447.781067,440.477142 447.584503,442.385040 
	C450.390106,445.684875 453.504150,448.929291 456.139832,452.524384 
	C464.682922,464.177216 466.956085,477.008759 462.436218,490.800781 
	C460.291931,497.343933 455.769714,502.284363 450.371613,506.366608 
	C446.509216,509.287537 442.341431,508.989807 439.571960,505.936615 
	C436.704742,502.775604 436.945007,498.155518 440.156311,494.700958 
	C454.791840,478.956726 448.269012,456.112640 427.442474,450.093567 
	C425.954102,449.663452 424.549133,449.662750 423.027283,449.858459 
	C408.627838,451.710297 395.690063,447.569031 383.717407,439.907776 
	C379.375336,437.129333 378.194794,431.957520 380.623901,428.204987 
	C383.038696,424.474426 387.024323,423.968353 392.006714,426.817932 
	C406.536926,435.128204 421.345520,437.263306 436.580566,428.752899 
	C441.025726,426.269745 444.259949,422.416412 447.439301,418.543945 
	C448.812103,416.871796 450.096588,415.116119 451.578217,413.546631 
	C454.806885,410.126434 458.857635,409.756042 462.210419,412.442169 
	C465.608459,415.164581 466.357056,419.220886 463.814667,423.134857 
	C460.166351,428.751373 455.413391,433.450653 450.435852,438.389343 
z"/>
</svg>